PathFileType	4	(X/Y/Z)	C:/Users/empri/Downloads/Take 2024-05-09 02.19.42 PM.trc
DataRate	CameraRate	NumFrames	NumMarkers	Units	OrigDataRate	OrigDataStartFrame	OrigNumFrames
240	240	53	9	mm	240	0	1279
Frame#	Time	C7	CLAV	RELB	RFIN	RFRM	RSHO	RUPA	RWRA	RWRB
X1	Y1	Z1	X2	Y2	Z2	X3	Y3	Z3	X4	Y4	Z4	X5	Y5	Z5	X6	Y6	Z6	X7	Y7	Z7	X8	Y8	Z8	X9	Y9	Z9
0	0	-127.385	1542.86	-43.9901	31.9368	1369.73	-138.205	96.7847	1145.77	129.316	159.174	840.477	18.8355	106.56	1020.55	146.475	24.1331	1481.4	69.281	61.6191	1322.36	135.333	113.276	916.631	33.1604	88.175	885.045	121.728
1	0.004	-127.412	1542.86	-43.9814	31.9184	1369.73	-138.202	96.8022	1145.78	129.354	159.222	840.47	18.9471	106.584	1020.56	146.56	24.1086	1481.39	69.2795	61.6072	1322.36	135.341	113.321	916.615	33.239	88.1983	885.056	121.802
2	0.008	-127.432	1542.86	-43.9729	31.9018	1369.73	-138.201	96.8145	1145.78	129.404	159.255	840.464	19.0513	106.596	1020.56	146.633	24.0873	1481.38	69.2837	61.5918	1322.33	135.364	113.345	916.599	33.3226	88.2292	885.057	121.879
3	0.013	-127.459	1542.85	-43.9577	31.8723	1369.73	-138.192	96.8192	1145.78	129.458	159.294	840.467	19.1753	106.616	1020.58	146.727	24.0449	1481.36	69.3378	61.5723	1322.35	135.381	113.377	916.568	33.4333	88.2636	885.046	121.984
4	0.017	-127.481	1542.84	-43.9469	31.8551	1369.73	-138.185	96.822	1145.78	129.499	159.32	840.463	19.2705	106.629	1020.58	146.796	24.0274	1481.36	69.3051	61.5558	1322.35	135.397	113.418	916.552	33.5304	88.2862	885.037	122.057
5	0.021	-127.506	1542.84	-43.9367	31.8338	1369.72	-138.176	96.8293	1145.78	129.536	159.349	840.464	19.3654	106.651	1020.59	146.858	23.9923	1481.34	69.3598	61.542	1322.34	135.418	113.449	916.547	33.6111	88.3116	885.027	122.131
6	0.025	-127.526	1542.83	-43.9333	31.8205	1369.73	-138.17	96.8519	1145.79	129.57	159.386	840.463	19.4585	106.672	1020.59	146.915	23.9728	1481.33	69.3571	61.5334	1322.32	135.439	113.474	916.527	33.6812	88.3437	885.026	122.197
7	0.029	-127.546	1542.82	-43.9303	31.8032	1369.73	-138.172	96.8633	1145.79	129.601	159.405	840.461	19.5391	106.695	1020.61	146.968	23.9548	1481.32	69.3574	61.519	1322.32	135.451	113.515	916.522	33.7451	88.3721	885.028	122.261
8	0.033	-127.564	1542.81	-43.9255	31.7887	1369.72	-138.169	96.8822	1145.8	129.637	159.436	840.452	19.6315	106.72	1020.62	147.03	23.9342	1481.31	69.36	61.5087	1322.31	135.454	113.546	916.506	33.8069	88.4035	885.035	122.324
9	0.038	-127.588	1542.8	-43.9284	31.7571	1369.71	-138.158	96.9147	1145.83	129.689	159.457	840.439	19.7367	106.735	1020.63	147.099	23.9031	1481.29	69.3608	61.4958	1322.32	135.48	113.594	916.492	33.8942	88.4387	885.069	122.437
10	0.042	-127.625	1542.78	-43.9478	31.7385	1369.7	-138.146	96.9209	1145.83	129.717	159.474	840.417	19.8232	106.75	1020.64	147.151	23.878	1481.28	69.3635	61.4849	1322.32	135.495	113.625	916.476	33.966	88.4617	885.079	122.514
11	0.046	-127.645	1542.76	-43.9473	31.7696	1369.7	-138.047	96.9283	1145.84	129.742	159.496	840.399	19.8898	106.761	1020.64	147.2	23.856	1481.27	69.3661	61.4711	1322.32	135.506	113.649	916.443	34.0285	88.4797	885.081	122.571
12	0.05	-127.67	1542.76	-43.9524	31.7501	1369.69	-138.05	96.9321	1145.84	129.769	159.506	840.379	19.9633	106.769	1020.64	147.236	23.8307	1481.26	69.3615	61.4544	1322.31	135.505	113.673	916.431	34.0841	88.5131	885.065	122.634
13	0.054	-127.689	1542.74	-43.9499	31.7281	1369.68	-138.056	96.9343	1145.84	129.787	159.52	840.355	20.033	106.779	1020.65	147.274	23.8078	1481.25	69.3595	61.4396	1322.3	135.512	113.691	916.418	34.1225	88.5277	885.066	122.689
14	0.058	-127.714	1542.74	-43.9484	31.7038	1369.68	-138.055	96.9218	1145.82	129.817	159.534	840.341	20.1061	106.799	1020.65	147.318	23.7839	1481.24	69.3594	61.425	1322.3	135.51	113.709	916.402	34.1765	88.5458	885.071	122.741
15	0.063	-127.74	1542.73	-43.9491	31.6332	1369.66	-138.147	96.9166	1145.81	129.845	159.554	840.315	20.1875	106.805	1020.66	147.368	23.7463	1481.22	69.3612	61.402	1322.3	135.523	113.732	916.375	34.2359	88.5704	885.105	122.83
16	0.067	-127.758	1542.72	-43.9462	31.6447	1369.65	-138.045	96.9154	1145.8	129.866	159.577	840.303	20.2616	106.811	1020.66	147.401	23.7181	1481.21	69.3711	61.388	1322.3	135.537	113.739	916.348	34.2957	88.5839	885.114	122.893
17	0.071	-127.776	1542.71	-43.9442	31.6326	1369.64	-138.042	96.9193	1145.8	129.881	159.602	840.283	20.3284	106.822	1020.66	147.43	23.6965	1481.2	69.3688	61.3729	1322.29	135.531	113.767	916.333	34.3331	88.5966	885.114	122.94
18	0.075	-127.8	1542.7	-43.9467	31.6209	1369.64	-138.048	96.9217	1145.8	129.894	159.629	840.286	20.3883	106.827	1020.67	147.456	23.6743	1481.2	69.3706	61.354	1322.28	135.538	113.789	916.319	34.3659	88.5987	885.115	122.986
19	0.079	-127.817	1542.7	-43.9444	31.6091	1369.66	-138.041	96.9251	1145.81	129.908	159.653	840.289	20.4348	106.831	1020.67	147.482	23.646	1481.2	69.3733	61.3369	1322.28	135.532	113.8	916.302	34.4049	88.6062	885.113	123.015
20	0.083	-127.843	1542.69	-43.9422	31.5962	1369.66	-138.039	96.925	1145.82	129.921	159.685	840.288	20.4969	106.834	1020.68	147.503	23.6247	1481.19	69.3734	61.3215	1322.29	135.537	113.82	916.303	34.4377	88.6147	885.128	123.069
21	0.088	-127.865	1542.69	-43.9352	31.5797	1369.67	-138.029	96.9196	1145.83	129.935	159.709	840.295	20.5625	106.837	1020.68	147.531	23.5954	1481.19	69.3785	61.2925	1322.29	135.549	113.845	916.296	34.4796	88.6332	885.146	123.113
22	0.092	-127.875	1542.69	-43.9364	31.5632	1369.67	-138.02	96.9175	1145.83	129.951	159.728	840.288	20.6186	106.834	1020.69	147.555	23.5708	1481.19	69.3847	61.2723	1322.29	135.555	113.855	916.285	34.5206	88.6407	885.149	123.145
23	0.096	-127.892	1542.69	-43.9328	31.5543	1369.67	-138.013	96.9176	1145.84	129.965	159.757	840.295	20.6574	106.832	1020.69	147.574	23.5455	1481.18	69.3885	61.2574	1322.28	135.556	113.873	916.28	34.5494	88.6442	885.157	123.175
24	0.1	-127.911	1542.68	-43.9329	31.5452	1369.68	-138.012	96.9168	1145.84	129.979	159.781	840.296	20.7012	106.838	1020.69	147.589	23.5237	1481.18	69.3928	61.2421	1322.28	135.557	113.894	916.28	34.5605	88.6604	885.124	123.209
25	0.104	-127.93	1542.67	-43.9386	31.5372	1369.69	-138.009	96.9134	1145.85	129.982	159.802	840.294	20.7234	106.845	1020.7	147.602	23.502	1481.18	69.3947	61.2241	1322.28	135.56	113.899	916.272	34.5874	88.6766	885.115	123.224
26	0.108	-127.949	1542.66	-43.9396	31.5211	1369.68	-138.002	96.9109	1145.84	129.986	159.816	840.281	20.7513	106.843	1020.69	147.612	23.4819	1481.17	69.3977	61.2109	1322.27	135.565	113.908	916.254	34.6055	88.6791	885.124	123.245
27	0.113	-127.97	1542.66	-43.9406	31.4823	1369.66	-137.999	96.9024	1145.83	129.992	159.826	840.26	20.7818	106.848	1020.69	147.631	23.4534	1481.16	69.4014	61.1953	1322.27	135.564	113.924	916.243	34.6311	88.6955	885.132	123.265
28	0.117	-127.99	1542.65	-43.948	31.4585	1369.65	-137.998	96.8881	1145.82	129.999	159.833	840.258	20.7956	106.843	1020.69	147.638	23.4307	1481.16	69.4021	61.1768	1322.27	135.573	113.923	916.233	34.6386	88.7081	885.122	123.277
29	0.121	-128.009	1542.65	-43.948	31.4487	1369.65	-138.006	96.8771	1145.81	130.002	159.849	840.256	20.8015	106.848	1020.69	147.641	23.4071	1481.15	69.4012	61.1603	1322.26	135.577	113.932	916.227	34.6489	88.7119	885.125	123.285
30	0.125	-128.043	1542.64	-43.9358	31.437	1369.65	-138.003	96.8827	1145.82	129.995	159.856	840.258	20.8042	106.846	1020.68	147.639	23.3875	1481.14	69.4033	61.1483	1322.25	135.571	113.942	916.227	34.6421	88.7175	885.108	123.278
31	0.129	-128.063	1542.64	-43.9332	31.4304	1369.66	-137.999	96.8775	1145.82	129.997	159.869	840.271	20.8022	106.851	1020.69	147.637	23.3658	1481.14	69.3958	61.128	1322.25	135.568	113.941	916.224	34.6551	88.7188	885.114	123.277
32	0.133	-128.083	1542.64	-43.9395	31.4248	1369.67	-137.997	96.8707	1145.82	129.993	159.88	840.278	20.7983	106.851	1020.69	147.635	23.3411	1481.14	69.4028	61.1075	1322.25	135.57	113.947	916.232	34.6517	88.7348	885.113	123.28
33	0.138	-128.102	1542.63	-43.9321	31.4096	1369.66	-137.988	96.8649	1145.82	129.99	159.89	840.277	20.787	106.851	1020.69	147.637	23.3114	1481.12	69.4072	61.0858	1322.25	135.579	113.955	916.229	34.6409	88.7477	885.116	123.284
34	0.142	-128.116	1542.62	-43.933	31.3992	1369.66	-137.982	96.8548	1145.82	129.992	159.9	840.282	20.7854	106.857	1020.68	147.636	23.2869	1481.11	69.4137	61.0708	1322.23	135.581	113.952	916.221	34.6483	88.7582	885.117	123.29
35	0.146	-128.133	1542.61	-43.9258	31.3901	1369.66	-137.986	96.8448	1145.81	129.989	159.912	840.295	20.7654	106.855	1020.68	147.628	23.2457	1481.11	69.4146	61.0515	1322.23	135.588	113.954	916.221	34.6334	88.7635	885.15	123.276
36	0.15	-128.15	1542.61	-43.9345	31.3841	1369.66	-137.985	96.8361	1145.81	129.979	159.919	840.302	20.7477	106.862	1020.67	147.615	23.2252	1481.1	69.4106	61.035	1322.22	135.585	113.955	916.225	34.62	88.7761	885.135	123.259
37	0.154	-128.17	1542.61	-43.9345	31.3415	1369.65	-137.986	96.8347	1145.8	129.97	159.923	840.316	20.7193	106.87	1020.67	147.598	23.1955	1481.09	69.4058	61.0255	1322.21	135.585	113.96	916.229	34.5987	88.7941	885.125	123.231
38	0.158	-128.183	1542.6	-43.9352	31.3289	1369.65	-137.982	96.8283	1145.81	129.964	159.928	840.316	20.6914	106.877	1020.67	147.592	23.1731	1481.09	69.4105	61.0109	1322.21	135.582	113.956	916.233	34.588	88.8163	885.126	123.209
39	0.163	-128.204	1542.6	-43.9426	31.3106	1369.64	-137.979	96.8151	1145.8	129.953	159.934	840.32	20.6512	106.882	1020.67	147.575	23.1437	1481.07	69.4086	60.9899	1322.2	135.581	113.956	916.236	34.5655	88.8366	885.131	123.187
40	0.167	-128.216	1542.59	-43.9455	31.2979	1369.64	-137.975	96.8006	1145.79	129.943	159.938	840.332	20.613	106.886	1020.66	147.561	23.1276	1481.06	69.4102	60.9685	1322.19	135.583	113.954	916.236	34.5468	88.8541	885.124	123.168
41	0.171	-128.227	1542.58	-43.9495	31.2853	1369.62	-137.975	96.7934	1145.78	129.926	159.942	840.331	20.5712	106.894	1020.66	147.545	23.105	1481.05	69.4112	60.9524	1322.18	135.588	113.95	916.238	34.5205	88.8792	885.116	123.143
42	0.175	-128.239	1542.57	-43.9548	31.2792	1369.63	-137.987	96.802	1145.8	129.9	159.949	840.342	20.5135	106.9	1020.66	147.525	23.0871	1481.04	69.4124	60.9363	1322.18	135.585	113.958	916.245	34.4836	88.8901	885.099	123.114
43	0.179	-128.252	1542.57	-43.9637	31.2713	1369.62	-137.987	96.8026	1145.8	129.886	159.963	840.356	20.4685	106.906	1020.65	147.502	23.0712	1481.03	69.4137	60.9229	1322.16	135.585	113.954	916.247	34.4545	88.9072	885.079	123.078
44	0.183	-128.273	1542.57	-43.9642	31.2595	1369.62	-137.988	96.7965	1145.8	129.873	159.972	840.368	20.4265	106.91	1020.65	147.482	23.0493	1481.03	69.4142	60.902	1322.16	135.584	113.956	916.256	34.4286	88.9225	885.079	123.056
45	0.188	-128.29	1542.56	-43.9613	31.2443	1369.62	-137.987	96.7533	1145.77	129.849	159.979	840.388	20.3702	106.918	1020.64	147.465	23.0231	1481.01	69.4174	60.875	1322.13	135.579	113.947	916.266	34.3898	88.9466	885.071	123.021
46	0.192	-128.304	1542.55	-43.9696	31.2306	1369.63	-137.994	96.7425	1145.76	129.834	159.983	840.392	20.3212	106.922	1020.64	147.441	23.0059	1481	69.4179	60.8592	1322.13	135.582	113.943	916.259	34.3658	88.9636	885.068	122.997
47	0.196	-128.315	1542.54	-43.9762	31.2233	1369.6	-137.983	96.7339	1145.75	129.821	159.996	840.402	20.2568	106.928	1020.62	147.418	22.9864	1480.99	69.4159	60.8437	1322.12	135.585	113.943	916.253	34.3309	88.9844	885.064	122.97
48	0.2	-128.323	1542.54	-43.9813	31.2193	1369.6	-137.993	96.7314	1145.75	129.797	160.009	840.421	20.198	106.939	1020.62	147.383	22.9626	1480.98	69.4136	60.8296	1322.11	135.584	113.943	916.259	34.294	89.0141	885.066	122.935
49	0.204	-128.337	1542.54	-43.9896	31.2126	1369.6	-137.989	96.7279	1145.74	129.778	160.022	840.443	20.1411	106.952	1020.61	147.35	22.9496	1480.96	69.4144	60.8141	1322.1	135.584	113.949	916.264	34.2475	89.0426	885.03	122.871
50	0.208	-128.343	1542.53	-43.9948	31.2052	1369.59	-137.986	96.7244	1145.73	129.759	160.033	840.447	20.092	106.966	1020.61	147.326	22.9335	1480.93	69.4197	60.8064	1322.07	135.578	113.964	916.26	34.2102	89.0542	885.026	122.846
51	0.213	-128.357	1542.53	-43.998	31.1977	1369.6	-137.977	96.7182	1145.72	129.742	160.044	840.466	20.0355	106.973	1020.6	147.297	22.9151	1480.92	69.4221	60.7862	1322.07	135.578	113.945	916.267	34.1792	89.0879	885.032	122.798
52	0.217	-128.362	1542.54	-43.9979	31.1884	1369.62	-137.986	96.7024	1145.72	129.717	160.06	840.493	19.9829	106.978	1020.6	147.273	22.8951	1480.92	69.4271	60.7689	1322.07	135.578	113.962	916.28	34.129	89.1209	885.034	122.741
